<svg width="62" height="52" viewBox="0 0 62 52" fill="none" xmlns="http://www.w3.org/2000/svg">
<path d="M21.2538 5.12583L7.50108 25.7549L21.2538 46.384" stroke="white" stroke-width="2.75055"/>
<path d="M43.2582 1L59.7615 25.7549L43.2582 50.5098" stroke="white" stroke-width="2.75055"/>
<path d="M40.5077 5.12583L54.2604 25.7549L40.5077 46.384" stroke="white" stroke-width="2.75055"/>
<line x1="20.1096" y1="5.73094" x2="41.6464" y2="5.73094" stroke="white" stroke-width="2.75055"/>
<path d="M18.5033 1L2.00001 25.7549L18.5033 50.5098" stroke="white" stroke-width="2.75055"/>
<line x1="17.3755" y1="1.61888" x2="44.4134" y2="1.61888" stroke="white" stroke-width="2.75055"/>
<line x1="17.3755" y1="49.9047" x2="44.4134" y2="49.9047" stroke="white" stroke-width="2.75055"/>
<line x1="20.1096" y1="45.7789" x2="41.6464" y2="45.7789" stroke="white" stroke-width="2.75055"/>
<path d="M37.6 17.5C37.8 17.5 37.9667 17.575 38.1 17.725C38.25 17.8583 38.325 18.0333 38.325 18.25V34.25C38.325 34.4667 38.25 34.65 38.1 34.8C37.95 34.9333 37.7667 35 37.55 35C37.3167 35 37.125 34.9333 36.975 34.8C36.825 34.65 36.75 34.4667 36.75 34.25V20.5L30.875 29.4C30.7083 29.6167 30.5167 29.7167 30.3 29.7H30.25C30.05 29.7 29.8667 29.6 29.7 29.4L23.825 20.45V34.25C23.825 34.4667 23.75 34.65 23.6 34.8C23.4667 34.9333 23.2917 35 23.075 35C22.8583 35 22.6833 34.9333 22.55 34.8C22.4167 34.65 22.35 34.4667 22.35 34.25V18.25C22.35 18.05 22.4167 17.875 22.55 17.725C22.7 17.575 22.8833 17.5 23.1 17.5C23.2167 17.5 23.3417 17.5333 23.475 17.6C23.6083 17.65 23.7083 17.725 23.775 17.825L30.325 27.65L36.925 17.825C37.1083 17.575 37.3333 17.4667 37.6 17.5Z" fill="white"/>
<path d="M37.6 17.5L37.476 18.4923L37.5377 18.5H37.6V17.5ZM38.1 17.725L37.3526 18.3894L37.3917 18.4333L37.4356 18.4724L38.1 17.725ZM38.1 34.8L38.7644 35.5474L38.7863 35.5279L38.8071 35.5071L38.1 34.8ZM36.975 34.8L36.2679 35.5071L36.2887 35.5279L36.3106 35.5474L36.975 34.8ZM36.75 20.5H37.75V17.1699L35.9154 19.9491L36.75 20.5ZM30.875 29.4L31.6676 30.0097L31.6897 29.9811L31.7096 29.9509L30.875 29.4ZM30.3 29.7L30.3767 28.7029L30.3384 28.7H30.3V29.7ZM29.7 29.4L28.864 29.9488L28.8953 29.9964L28.9318 30.0402L29.7 29.4ZM23.825 20.45L24.661 19.9012L22.825 17.1043V20.45H23.825ZM23.6 34.8L22.8929 34.0929L22.8929 34.0929L23.6 34.8ZM22.55 34.8L21.8026 35.4644L21.8221 35.4863L21.8429 35.5071L22.55 34.8ZM22.55 17.725L21.8429 17.0179L21.8221 17.0387L21.8026 17.0606L22.55 17.725ZM23.475 17.6L23.0278 18.4944L23.0747 18.5179L23.1239 18.5363L23.475 17.6ZM23.775 17.825L24.6071 17.2703L24.607 17.2703L23.775 17.825ZM30.325 27.65L29.493 28.2047L30.3218 29.448L31.1551 28.2076L30.325 27.65ZM36.925 17.825L36.1186 17.2336L36.1064 17.2503L36.0949 17.2674L36.925 17.825ZM37.6 18.5C37.572 18.5 37.5221 18.494 37.4646 18.4682C37.4073 18.4424 37.3703 18.4093 37.3526 18.3894L38.8474 17.0606C38.5251 16.698 38.0868 16.5 37.6 16.5V18.5ZM37.4356 18.4724C37.4068 18.4468 37.3731 18.4051 37.3496 18.3502C37.3269 18.2972 37.325 18.2585 37.325 18.25H39.325C39.325 17.7733 39.1463 17.3171 38.7644 16.9776L37.4356 18.4724ZM37.325 18.25V34.25H39.325V18.25H37.325ZM37.325 34.25C37.325 34.2407 37.3271 34.2107 37.3432 34.1714C37.3595 34.1316 37.3807 34.1051 37.3929 34.0929L38.8071 35.5071C39.1491 35.1651 39.325 34.7255 39.325 34.25H37.325ZM37.4356 34.0526C37.4523 34.0378 37.4778 34.0213 37.5083 34.0102C37.5376 33.9995 37.5546 34 37.55 34V36C37.9904 36 38.4161 35.857 38.7644 35.5474L37.4356 34.0526ZM37.55 34C37.5287 34 37.5355 33.997 37.5598 34.0055C37.5863 34.0147 37.6153 34.0312 37.6394 34.0526L36.3106 35.5474C36.673 35.8695 37.1141 36 37.55 36V34ZM37.6821 34.0929C37.6943 34.1051 37.7155 34.1316 37.7318 34.1714C37.7479 34.2107 37.75 34.2407 37.75 34.25H35.75C35.75 34.7255 35.9259 35.1651 36.2679 35.5071L37.6821 34.0929ZM37.75 34.25V20.5H35.75V34.25H37.75ZM35.9154 19.9491L30.0404 28.8491L31.7096 29.9509L37.5846 21.0509L35.9154 19.9491ZM30.0824 28.7903C30.065 28.8129 30.0813 28.7834 30.1437 28.7509C30.2146 28.7139 30.2995 28.697 30.3767 28.7029L30.2233 30.6971C30.8645 30.7464 31.3554 30.4156 31.6676 30.0097L30.0824 28.7903ZM30.3 28.7H30.25V30.7H30.3V28.7ZM30.25 28.7C30.3248 28.7 30.3929 28.7207 30.4414 28.7471C30.4838 28.7703 30.4901 28.7861 30.4682 28.7598L28.9318 30.0402C29.2269 30.3943 29.6689 30.7 30.25 30.7V28.7ZM30.536 28.8512L24.661 19.9012L22.989 20.9988L28.864 29.9488L30.536 28.8512ZM22.825 20.45V34.25H24.825V20.45H22.825ZM22.825 34.25C22.825 34.2407 22.8271 34.2107 22.8432 34.1714C22.8595 34.1316 22.8807 34.1051 22.8929 34.0929L24.3071 35.5071C24.6491 35.1651 24.825 34.7255 24.825 34.25H22.825ZM22.8929 34.0929C22.9252 34.0606 22.9676 34.0327 23.0128 34.0155C23.0553 33.9993 23.0805 34 23.075 34V36C23.514 36 23.9579 35.8563 24.3071 35.5071L22.8929 34.0929ZM23.075 34C23.0695 34 23.0947 33.9993 23.1372 34.0155C23.1824 34.0327 23.2248 34.0606 23.2571 34.0929L21.8429 35.5071C22.1921 35.8563 22.636 36 23.075 36V34ZM23.2974 34.1356C23.3122 34.1523 23.3287 34.1778 23.3398 34.2083C23.3505 34.2376 23.35 34.2546 23.35 34.25H21.35C21.35 34.6904 21.493 35.1161 21.8026 35.4644L23.2974 34.1356ZM23.35 34.25V18.25H21.35V34.25H23.35ZM23.35 18.25C23.35 18.2633 23.3473 18.291 23.3345 18.3247C23.3217 18.3584 23.3055 18.3803 23.2974 18.3894L21.8026 17.0606C21.5072 17.393 21.35 17.8041 21.35 18.25H23.35ZM23.2571 18.4321C23.2449 18.4443 23.2184 18.4655 23.1786 18.4818C23.1393 18.4979 23.1093 18.5 23.1 18.5V16.5C22.6245 16.5 22.1849 16.6759 21.8429 17.0179L23.2571 18.4321ZM23.1 18.5C23.0244 18.5 22.9959 18.4785 23.0278 18.4944L23.9222 16.7056C23.6874 16.5882 23.4089 16.5 23.1 16.5V18.5ZM23.1239 18.5363C23.1137 18.5325 23.0858 18.5206 23.05 18.4937C23.013 18.466 22.975 18.4278 22.943 18.3797L24.607 17.2703C24.4038 16.9654 24.1185 16.7733 23.8261 16.6637L23.1239 18.5363ZM22.9429 18.3797L29.493 28.2047L31.1571 27.0953L24.6071 17.2703L22.9429 18.3797ZM31.1551 28.2076L37.7551 18.3826L36.0949 17.2674L29.4949 27.0924L31.1551 28.2076ZM37.7314 18.4164C37.7492 18.3922 37.7318 18.4251 37.6651 18.4573C37.6322 18.4731 37.5957 18.4845 37.5586 18.4901C37.522 18.4957 37.4933 18.4944 37.476 18.4923L37.724 16.5077C37.0355 16.4217 36.4768 16.7452 36.1186 17.2336L37.7314 18.4164Z" fill="white"/>
</svg>
